<?xml version="1.0" standalone="no"?>
<!DOCTYPE svg PUBLIC "-//W3C//DTD SVG 20010904//EN"
 "http://www.w3.org/TR/2001/REC-SVG-20010904/DTD/svg10.dtd">
<svg version="1.0" xmlns="http://www.w3.org/2000/svg"
 width="140" height="45" viewBox="0 0 7520.000000 1508.000000"
 preserveAspectRatio="xMidYMid meet">

<g transform="translate(0.000000,1508.000000) scale(0.100000,-0.100000)"
   fill="#DAA520" stroke="none">
<path d="M2090 14279 c-240 -28 -471 -139 -640 -309 -139 -138 -234 -303 -285
-490 l-25 -95 0 -2652 0 -2653 2226 0 2226 0 -9 68 c-14 115 -8 348 11 442 41
200 121 387 234 543 71 99 234 256 332 322 337 224 737 289 1120 184 273 -75
618 -328 1167 -855 105 -101 193 -179 195 -174 2 5 2 1286 0 2845 l-2 2835
-3238 -1 c-1780 -1 -3271 -5 -3312 -10z"/>
<path d="M9488 11455 c-2 -1559 -2 -2840 0 -2845 2 -5 90 73 195 174 549 527
894 780 1167 855 383 105 783 40 1120 -184 98 -66 261 -223 332 -322 113 -156
193 -343 234 -543 19 -94 25 -327 11 -442 l-9 -68 2226 0 2226 0 0 2653 0
2652 -25 95 c-118 438 -483 748 -940 800 -59 6 -1208 10 -3312 10 l-3223 0 -2
-2835z"/>
<path d="M25270 13383 c-1169 -18 -2224 -268 -3105 -735 -935 -497 -1726
-1272 -2245 -2203 -519 -930 -764 -2052 -719 -3304 30 -854 172 -1563 447
-2226 444 -1072 1260 -1944 2312 -2470 909 -455 1959 -663 3225 -641 1473 26
2677 297 3693 829 l212 111 0 2818 0 2818 -2380 0 -2380 0 0 -1010 0 -1010
1120 0 1120 0 0 -1093 0 -1093 -62 -27 c-283 -121 -595 -189 -1018 -219 -241
-17 -682 -4 -910 26 -695 93 -1268 357 -1724 794 -560 537 -875 1249 -977
2207 -19 178 -22 265 -22 575 0 334 3 384 27 590 115 949 462 1674 1079 2253
570 535 1310 841 2157 892 364 23 953 -6 1395 -66 687 -94 1347 -299 1884
-584 88 -47 163 -85 166 -85 3 0 4 532 3 1182 l-3 1181 -160 54 c-891 300
-1997 453 -3135 436z"/>
<path d="M31280 7600 l0 -5600 1260 0 1260 0 0 5600 0 5600 -1260 0 -1260 0 0
-5600z"/>
<path d="M36350 7600 l0 -5600 1260 0 1260 0 0 2175 0 2175 1815 0 1815 0 0
1020 0 1020 -1815 0 -1815 0 0 1375 0 1375 1975 0 1975 0 0 1030 0 1030 -3235
0 -3235 0 0 -5600z"/>
<path d="M43630 12170 l0 -1030 1590 0 1590 0 0 -4570 0 -4570 1265 0 1265 0
0 4570 0 4570 1595 0 1595 0 0 1030 0 1030 -4450 0 -4450 0 0 -1030z"/>
<path d="M54050 7601 l0 -5601 1260 0 1260 0 0 2141 0 2140 428 -3 c406 -4
431 -5 507 -26 113 -32 285 -120 388 -198 183 -139 406 -398 627 -729 138
-207 186 -286 1185 -1937 l838 -1388 1450 0 1449 0 -18 28 c-10 15 -492 770
-1072 1677 -1105 1729 -1118 1749 -1271 1965 -348 494 -714 884 -1051 1122
-83 59 -254 149 -347 184 -106 39 -100 51 50 97 357 112 736 294 1031 495 752
514 1216 1262 1333 2149 14 111 18 202 17 463 -1 299 -3 340 -28 510 -138 935
-587 1576 -1399 1999 -490 256 -1110 410 -1932 482 -246 22 -284 22 -2477 26
l-2228 4 0 -5600z m3855 3699 c373 -21 622 -79 870 -201 421 -207 643 -565
685 -1104 42 -535 -121 -977 -493 -1331 -202 -193 -418 -316 -692 -393 -259
-72 -378 -81 -1107 -81 l-598 0 0 1560 0 1560 583 0 c320 0 659 -5 752 -10z"/>
<path d="M64500 7601 l0 -5601 1260 0 1260 0 0 2141 0 2140 428 -3 c406 -4
431 -5 507 -26 113 -32 285 -120 388 -198 183 -139 406 -398 627 -729 138
-207 186 -286 1185 -1937 l838 -1388 1450 0 1449 0 -18 28 c-10 15 -492 770
-1072 1677 -1105 1729 -1118 1749 -1271 1965 -348 494 -714 884 -1051 1122
-83 59 -254 149 -347 184 -106 39 -100 51 50 97 357 112 736 294 1031 495 752
514 1216 1262 1333 2149 14 111 18 202 17 463 -1 299 -3 340 -28 510 -138 935
-587 1576 -1399 1999 -490 256 -1110 410 -1932 482 -246 22 -284 22 -2477 26
l-2228 4 0 -5600z m3855 3699 c373 -21 622 -79 870 -201 421 -207 643 -565
685 -1104 42 -535 -121 -977 -493 -1331 -202 -193 -418 -316 -692 -393 -259
-72 -378 -81 -1107 -81 l-598 0 0 1560 0 1560 583 0 c320 0 659 -5 752 -10z"/>
<path d="M6814 9014 c-212 -30 -409 -173 -503 -365 -55 -113 -72 -184 -73
-301 0 -103 4 -132 30 -215 l16 -53 965 1 966 0 -195 191 c-349 341 -632 581
-793 672 -124 70 -258 93 -413 70z"/>
<path d="M11132 9018 c-94 -10 -158 -32 -243 -82 -159 -94 -441 -334 -779
-664 l-195 -191 966 0 965 -1 16 53 c26 83 30 112 30 215 -1 178 -63 331 -187
461 -155 162 -353 234 -573 209z"/>
<path d="M1150 7232 c-7 -3 -10 -895 -10 -2650 0 -2575 1 -2649 19 -2727 48
-198 138 -354 296 -510 164 -163 324 -250 543 -295 100 -20 115 -20 3374 -20
l3273 0 0 2685 c0 2364 -2 2685 -15 2680 -8 -4 -116 -64 -240 -134 -221 -126
-578 -329 -934 -530 -98 -56 -181 -100 -183 -98 -2 3 62 133 142 291 81 157
142 287 136 287 -6 1 -14 2 -18 3 -5 1 -73 6 -153 11 -80 5 -147 9 -150 10 -3
1 -71 5 -151 9 -81 5 -151 11 -156 15 -6 3 123 81 286 173 905 510 1233 700
1203 694 -103 -18 -553 -73 -792 -96 -367 -35 -788 -36 -982 -1 -138 24 -285
79 -405 151 l-82 50 -2496 3 c-1372 1 -2500 1 -2505 -1z"/>
<path d="M12006 7232 c-17 -2 -66 -26 -111 -52 -118 -72 -266 -127 -403 -151
-194 -35 -615 -34 -982 1 -239 23 -689 78 -792 96 -30 6 298 -184 1203 -694
163 -92 292 -170 286 -173 -5 -4 -75 -10 -156 -15 -80 -4 -148 -8 -151 -9 -3
-1 -70 -5 -150 -10 -80 -5 -148 -10 -152 -11 -5 -1 -13 -2 -19 -3 -6 0 55
-130 136 -287 80 -158 144 -288 142 -291 -2 -2 -85 42 -183 98 -356 201 -713
404 -934 530 -124 70 -232 130 -240 134 -13 5 -15 -316 -15 -2680 l0 -2685
3273 0 c3259 0 3274 0 3374 20 219 45 379 132 543 295 158 156 248 312 296
510 18 78 19 152 19 2728 0 1456 -3 2647 -7 2647 -996 3 -4957 4 -4977 2z"/>
</g>
</svg>
