<?xml version="1.0" standalone="no"?>
<!DOCTYPE svg PUBLIC "-//W3C//DTD SVG 20010904//EN"
 "http://www.w3.org/TR/2001/REC-SVG-20010904/DTD/svg10.dtd">
<svg version="1.0" xmlns="http://www.w3.org/2000/svg"
 width="100" height="100" viewBox="0 0 1816.000000 1508.000000"
 preserveAspectRatio="xMidYMid meet">

<g transform="translate(0.000000,1508.000000) scale(0.100000,-0.100000)"
   fill="#DAA520" stroke="none">
<path d="M2090 14279 c-240 -28 -471 -139 -640 -309 -139 -138 -234 -303 -285
-490 l-25 -95 0 -2652 0 -2653 2226 0 2226 0 -9 68 c-14 115 -8 348 11 442 41
200 121 387 234 543 71 99 234 256 332 322 337 224 737 289 1120 184 273 -75
618 -328 1167 -855 105 -101 193 -179 195 -174 2 5 2 1286 0 2845 l-2 2835
-3238 -1 c-1780 -1 -3271 -5 -3312 -10z"/>
<path d="M9488 11455 c-2 -1559 -2 -2840 0 -2845 2 -5 90 73 195 174 549 527
894 780 1167 855 383 105 783 40 1120 -184 98 -66 261 -223 332 -322 113 -156
193 -343 234 -543 19 -94 25 -327 11 -442 l-9 -68 2226 0 2226 0 0 2653 0
2652 -25 95 c-118 438 -483 748 -940 800 -59 6 -1208 10 -3312 10 l-3223 0 -2
-2835z"/>
<path d="M6814 9014 c-212 -30 -409 -173 -503 -365 -55 -113 -72 -184 -73
-301 0 -103 4 -132 30 -215 l16 -53 965 1 966 0 -195 191 c-349 341 -632 581
-793 672 -124 70 -258 93 -413 70z"/>
<path d="M11132 9018 c-94 -10 -158 -32 -243 -82 -159 -94 -441 -334 -779
-664 l-195 -191 966 0 965 -1 16 53 c26 83 30 112 30 215 -1 178 -63 331 -187
461 -155 162 -353 234 -573 209z"/>
<path d="M1150 7232 c-7 -3 -10 -895 -10 -2650 0 -2575 1 -2649 19 -2727 48
-198 138 -354 296 -510 164 -163 324 -250 543 -295 100 -20 115 -20 3374 -20
l3273 0 0 2685 c0 2364 -2 2685 -15 2680 -8 -4 -116 -64 -240 -134 -221 -126
-578 -329 -934 -530 -98 -56 -181 -100 -183 -98 -2 3 62 133 142 291 81 157
142 287 136 287 -6 1 -14 2 -18 3 -5 1 -73 6 -153 11 -80 5 -147 9 -150 10 -3
1 -71 5 -151 9 -81 5 -151 11 -156 15 -6 3 123 81 286 173 905 510 1233 700
1203 694 -103 -18 -553 -73 -792 -96 -367 -35 -788 -36 -982 -1 -138 24 -285
79 -405 151 l-82 50 -2496 3 c-1372 1 -2500 1 -2505 -1z"/>
<path d="M12006 7232 c-17 -2 -66 -26 -111 -52 -118 -72 -266 -127 -403 -151
-194 -35 -615 -34 -982 1 -239 23 -689 78 -792 96 -30 6 298 -184 1203 -694
163 -92 292 -170 286 -173 -5 -4 -75 -10 -156 -15 -80 -4 -148 -8 -151 -9 -3
-1 -70 -5 -150 -10 -80 -5 -148 -10 -152 -11 -5 -1 -13 -2 -19 -3 -6 0 55
-130 136 -287 80 -158 144 -288 142 -291 -2 -2 -85 42 -183 98 -356 201 -713
404 -934 530 -124 70 -232 130 -240 134 -13 5 -15 -316 -15 -2680 l0 -2685
3273 0 c3259 0 3274 0 3374 20 219 45 379 132 543 295 158 156 248 312 296
510 18 78 19 152 19 2728 0 1456 -3 2647 -7 2647 -996 3 -4957 4 -4977 2z"/>
</g>
</svg>
